<svg width="16" height="16" viewBox="0 0 16 16" fill="none" xmlns="http://www.w3.org/2000/svg">
<g id="pencil-alt">
<g id="Vector">
<path d="M12.1568 2.09186C11.9941 2.16174 11.847 2.26332 11.724 2.39066L6.00002 8.11466V10H7.88535L13.6094 4.276C13.7367 4.153 13.8383 4.00587 13.9082 3.8432C13.978 3.68053 14.0148 3.50557 14.0164 3.32853C14.0179 3.15149 13.9842 2.97592 13.9171 2.81206C13.8501 2.6482 13.7511 2.49933 13.6259 2.37414C13.5007 2.24895 13.3518 2.14994 13.188 2.0829C13.0241 2.01586 12.8485 1.98212 12.6715 1.98366C12.4944 1.9852 12.3195 2.02198 12.1568 2.09186Z" fill="white"/>
<path d="M7.33335 3.33333H4.00002C3.6464 3.33333 3.30726 3.47381 3.05721 3.72385C2.80716 3.9739 2.66669 4.31304 2.66669 4.66666V12C2.66669 12.3536 2.80716 12.6928 3.05721 12.9428C3.30726 13.1929 3.6464 13.3333 4.00002 13.3333H11.3334C11.687 13.3333 12.0261 13.1929 12.2762 12.9428C12.5262 12.6928 12.6667 12.3536 12.6667 12V8.66666M11.724 2.39066C11.847 2.26332 11.9941 2.16174 12.1568 2.09186C12.3195 2.02198 12.4944 1.9852 12.6715 1.98366C12.8485 1.98212 13.0241 2.01586 13.188 2.0829C13.3518 2.14994 13.5007 2.24895 13.6259 2.37414C13.7511 2.49933 13.8501 2.6482 13.9171 2.81206C13.9842 2.97592 14.0179 3.15149 14.0164 3.32853C14.0148 3.50557 13.978 3.68053 13.9082 3.8432C13.8383 4.00587 13.7367 4.153 13.6094 4.276L7.88535 10H6.00002V8.11466L11.724 2.39066Z" stroke="#7B7B7B" stroke-width="2" stroke-linecap="round" stroke-linejoin="round"/>
</g>
</g>
</svg>
