<svg width="21" height="21" viewBox="0 0 21 21" fill="none" xmlns="http://www.w3.org/2000/svg">
<g id="book-open">
<path id="Vector" d="M9.5 5.30401C8.40971 4.77317 7.21265 4.49819 6 4.50001C4.745 4.50001 3.557 4.79001 2.5 5.30401V15.304C3.5903 14.7732 4.78736 14.4982 6 14.5C7.669 14.5 9.218 15.01 10.5 15.885C11.8261 14.9802 13.3947 14.4975 15 14.5C16.255 14.5 17.443 14.79 18.5 15.304V5.30401C17.4097 4.77317 16.2126 4.49819 15 4.50001C13.745 4.50001 12.557 4.79001 11.5 5.30401V12.5C11.5 12.7652 11.3946 13.0196 11.2071 13.2071C11.0196 13.3947 10.7652 13.5 10.5 13.5C10.2348 13.5 9.98043 13.3947 9.79289 13.2071C9.60536 13.0196 9.5 12.7652 9.5 12.5V5.30401Z" fill="#9CA3AF"/>
</g>
</svg>
