<svg width="21" height="20" viewBox="0 0 21 20" fill="none" xmlns="http://www.w3.org/2000/svg">
<g id="briefcase">
<path id="Vector" fill-rule="evenodd" clip-rule="evenodd" d="M6.5 6V5C6.5 4.20435 6.81607 3.44129 7.37868 2.87868C7.94129 2.31607 8.70435 2 9.5 2H11.5C12.2956 2 13.0587 2.31607 13.6213 2.87868C14.1839 3.44129 14.5 4.20435 14.5 5V6H16.5C17.0304 6 17.5391 6.21071 17.9142 6.58579C18.2893 6.96086 18.5 7.46957 18.5 8V11.57C15.9396 12.5187 13.2305 13.003 10.5 13C7.7695 13.003 5.06037 12.5188 2.5 11.57V8C2.5 7.46957 2.71071 6.96086 3.08579 6.58579C3.46086 6.21071 3.96957 6 4.5 6H6.5ZM8.5 5C8.5 4.73478 8.60536 4.48043 8.79289 4.29289C8.98043 4.10536 9.23478 4 9.5 4H11.5C11.7652 4 12.0196 4.10536 12.2071 4.29289C12.3946 4.48043 12.5 4.73478 12.5 5V6H8.5V5ZM9.5 10C9.5 9.73478 9.60536 9.48043 9.79289 9.29289C9.98043 9.10536 10.2348 9 10.5 9H10.51C10.7752 9 11.0296 9.10536 11.2171 9.29289C11.4046 9.48043 11.51 9.73478 11.51 10C11.51 10.2652 11.4046 10.5196 11.2171 10.7071C11.0296 10.8946 10.7752 11 10.51 11H10.5C10.2348 11 9.98043 10.8946 9.79289 10.7071C9.60536 10.5196 9.5 10.2652 9.5 10Z" fill="#9CA3AF"/>
<path id="Vector_2" d="M2.5 13.692V16C2.5 16.5304 2.71071 17.0392 3.08579 17.4142C3.46086 17.7893 3.96957 18 4.5 18H16.5C17.0304 18 17.5391 17.7893 17.9142 17.4142C18.2893 17.0392 18.5 16.5304 18.5 16V13.692C15.9224 14.5608 13.2201 15.0026 10.5 15C7.704 15 5.013 14.54 2.5 13.692Z" fill="#9CA3AF"/>
</g>
</svg>
