<svg width="21" height="20" viewBox="0 0 21 20" fill="none" xmlns="http://www.w3.org/2000/svg">
<g id="academic-cap">
<path id="Vector" d="M10.894 2.08003C10.7695 2.02667 10.6355 1.99915 10.5 1.99915C10.3645 1.99915 10.2305 2.02667 10.106 2.08003L3.106 5.08003C2.92561 5.15688 2.77179 5.28506 2.66368 5.44864C2.55556 5.61221 2.49792 5.80396 2.49792 6.00004C2.49792 6.19611 2.55556 6.38786 2.66368 6.55143C2.77179 6.71501 2.92561 6.84319 3.106 6.92004L5.75 8.05103C5.84814 7.94003 5.96974 7.85224 6.106 7.79403L10.106 6.08004C10.227 6.02609 10.3576 5.99673 10.4901 5.99369C10.6226 5.99064 10.7543 6.01395 10.8777 6.06227C11.0011 6.1106 11.1137 6.18296 11.2089 6.27517C11.3041 6.36738 11.38 6.47758 11.4322 6.59938C11.4844 6.72118 11.5119 6.85214 11.5131 6.98466C11.5142 7.11718 11.489 7.2486 11.439 7.37129C11.3889 7.49399 11.3149 7.60551 11.2214 7.69937C11.1278 7.79323 11.0165 7.86756 10.894 7.91804L8.167 9.08804L10.107 9.91903C10.2314 9.97226 10.3652 9.99971 10.5005 9.99971C10.6358 9.99971 10.7696 9.97226 10.894 9.91903L17.894 6.91903C18.0738 6.8419 18.227 6.71372 18.3347 6.55037C18.4424 6.38702 18.4997 6.19568 18.4997 6.00004C18.4997 5.80439 18.4424 5.61305 18.3347 5.4497C18.227 5.28635 18.0738 5.15817 17.894 5.08103L10.894 2.08104V2.08003ZM3.81 9.39704L5.5 10.12V14.222C5.15375 14.1433 4.80313 14.0852 4.45 14.048C4.22214 14.0241 4.00942 13.9226 3.84741 13.7606C3.68541 13.5986 3.58395 13.3859 3.56 13.158C3.42849 11.8989 3.51304 10.6266 3.81 9.39604V9.39704ZM9.8 16.573C9.12401 15.9098 8.34785 15.357 7.5 14.935V10.978L9.318 11.758C9.6915 11.9181 10.0936 12.0007 10.5 12.0007C10.9064 12.0007 11.3085 11.9181 11.682 11.758L17.19 9.39704C17.4887 10.6274 17.5733 11.9 17.44 13.159C17.4161 13.3869 17.3146 13.5996 17.1526 13.7616C16.9906 13.9236 16.7779 14.0251 16.55 14.049C14.5325 14.2611 12.6465 15.1508 11.2 16.573C11.0131 16.7563 10.7618 16.8589 10.5 16.8589C10.2382 16.8589 9.98693 16.7563 9.8 16.573ZM6.5 18C6.76522 18 7.01957 17.8947 7.20711 17.7071C7.39464 17.5196 7.5 17.2653 7.5 17V14.935C6.864 14.6191 6.19259 14.38 5.5 14.223V17C5.5 17.2653 5.60536 17.5196 5.79289 17.7071C5.98043 17.8947 6.23478 18 6.5 18Z" fill="#9CA3AF"/>
</g>
</svg>
