<svg width="21" height="20" viewBox="0 0 21 20" fill="none" xmlns="http://www.w3.org/2000/svg">
<g id="Facebook - Dark" clip-path="url(#clip0_303_8454)">
<path id="Vector" d="M20.6666 10C20.6666 4.47715 16.1895 0 10.6666 0C5.14377 0 0.666626 4.47715 0.666626 10C0.666626 14.9912 4.32346 19.1283 9.10413 19.8785V12.8906H6.56506V10H9.10413V7.79688C9.10413 5.29063 10.5971 3.90625 12.8813 3.90625C13.975 3.90625 15.1198 4.10156 15.1198 4.10156V6.5625H13.8588C12.6166 6.5625 12.2291 7.3334 12.2291 8.125V10H15.0026L14.5592 12.8906H12.2291V19.8785C17.0098 19.1283 20.6666 14.9912 20.6666 10Z" fill="#D9D9D9"/>
</g>
<defs>
<clipPath id="clip0_303_8454">
<rect width="20" height="20" fill="white" transform="translate(0.666626)"/>
</clipPath>
</defs>
</svg>
