<svg width="21" height="20" viewBox="0 0 21 20" fill="none" xmlns="http://www.w3.org/2000/svg">
<g id="Github - Dark" clip-path="url(#clip0_303_8459)">
<path id="Vector" fill-rule="evenodd" clip-rule="evenodd" d="M10.6669 0.416656C8.29289 0.417888 5.99676 1.25871 4.18904 2.78876C2.38132 4.31881 1.1799 6.43833 0.7996 8.76832C0.419301 11.0983 0.884919 13.4868 2.11321 15.5068C3.34149 17.5268 5.25235 19.0465 7.50409 19.7941C8.00086 19.8863 8.18798 19.5784 8.18798 19.3167C8.18798 19.0549 8.17804 18.2958 8.17473 17.466C5.39281 18.067 4.80497 16.2921 4.80497 16.2921C4.35125 15.1395 3.69551 14.8366 3.69551 14.8366C2.78808 14.2208 3.76341 14.2323 3.76341 14.2323C4.76854 14.3031 5.29678 15.2581 5.29678 15.2581C6.18765 16.7778 7.63656 16.3382 8.20619 16.0813C8.29561 15.4375 8.55559 14.9996 8.84206 14.751C6.61984 14.5007 4.28501 13.6478 4.28501 9.83784C4.27124 8.84975 4.64 7.8942 5.31499 7.16889C5.21232 6.91863 4.86955 5.90768 5.41268 4.53452C5.41268 4.53452 6.25223 4.26779 8.16314 5.55369C9.8022 5.10801 11.5315 5.10801 13.1706 5.55369C15.0799 4.26779 15.9177 4.53452 15.9177 4.53452C16.4625 5.90439 16.1198 6.91533 16.0171 7.16889C16.6942 7.89432 17.0637 8.85153 17.0487 9.84114C17.0487 13.6593 14.7089 14.5007 12.4834 14.746C12.8411 15.0556 13.1607 15.6598 13.1607 16.5884C13.1607 17.9188 13.1491 18.989 13.1491 19.3167C13.1491 19.5817 13.3296 19.8913 13.8363 19.7941C16.0883 19.0464 17.9993 17.5264 19.2276 15.5061C20.4558 13.4858 20.9212 11.0969 20.5405 8.7667C20.1598 6.43649 18.9577 4.31695 17.1494 2.78716C15.3411 1.25737 13.0444 0.417107 10.6702 0.416656H10.6669Z" fill="#D9D9D9"/>
<path id="Vector_2" d="M4.45368 14.6933C4.43215 14.7427 4.35267 14.7576 4.28809 14.723C4.22351 14.6884 4.17549 14.6242 4.19867 14.5731C4.22185 14.5221 4.29968 14.5089 4.36426 14.5435C4.42884 14.5781 4.47851 14.6439 4.45368 14.6933Z" fill="white"/>
<path id="Vector_3" d="M4.85936 15.1428C4.82506 15.16 4.78583 15.1648 4.74837 15.1564C4.71092 15.148 4.67757 15.1269 4.65403 15.0967C4.58945 15.0276 4.57619 14.9321 4.62587 14.8893C4.67555 14.8464 4.76497 14.8662 4.82955 14.9354C4.89413 15.0045 4.90903 15.1 4.85936 15.1428Z" fill="white"/>
<path id="Vector_4" d="M5.25348 15.7142C5.19221 15.757 5.08788 15.7142 5.02992 15.6285C5.0139 15.6132 5.00115 15.5948 4.99245 15.5744C4.98374 15.554 4.97925 15.5321 4.97925 15.51C4.97925 15.4879 4.98374 15.466 4.99245 15.4456C5.00115 15.4252 5.0139 15.4068 5.02992 15.3915C5.09119 15.3503 5.19552 15.3915 5.25348 15.4754C5.31143 15.5594 5.31309 15.6714 5.25348 15.7142Z" fill="white"/>
<path id="Vector_5" d="M5.78831 16.2674C5.73366 16.3283 5.62272 16.3118 5.53164 16.2295C5.44057 16.1472 5.41904 16.0352 5.47368 15.9759C5.52833 15.9167 5.63927 15.9331 5.73366 16.0138C5.82805 16.0945 5.84626 16.2081 5.78831 16.2674Z" fill="white"/>
<path id="Vector_6" d="M6.53848 16.5901C6.51364 16.6675 6.40104 16.702 6.28844 16.6691C6.17583 16.6362 6.10132 16.544 6.12285 16.4649C6.14437 16.3859 6.25863 16.3497 6.37289 16.3859C6.48715 16.4221 6.56 16.5094 6.53848 16.5901Z" fill="white"/>
<path id="Vector_7" d="M7.35649 16.6461C7.35649 16.7267 7.26376 16.7959 7.14454 16.7975C7.02531 16.7992 6.92761 16.7333 6.92761 16.6526C6.92761 16.572 7.02034 16.5028 7.13956 16.5012C7.25879 16.4995 7.35649 16.5637 7.35649 16.6461Z" fill="white"/>
<path id="Vector_8" d="M8.11817 16.5193C8.13307 16.6 8.05027 16.6839 7.93105 16.7037C7.81182 16.7234 7.7075 16.6757 7.6926 16.5967C7.67769 16.5176 7.7638 16.432 7.87971 16.4106C7.99563 16.3892 8.10326 16.4386 8.11817 16.5193Z" fill="white"/>
</g>
<defs>
<clipPath id="clip0_303_8459">
<rect width="20" height="20" fill="white" transform="translate(0.666626)"/>
</clipPath>
</defs>
</svg>
