<svg width="21" height="20" viewBox="0 0 21 20" fill="none" xmlns="http://www.w3.org/2000/svg">
<g id="globe-alt">
<g id="Vector">
<path d="M17.8334 10C17.8334 11.9891 17.0432 13.8968 15.6367 15.3033C14.2302 16.7098 12.3225 17.5 10.3334 17.5C8.34425 17.5 6.4366 16.7098 5.03007 15.3033C3.62355 13.8968 2.83337 11.9891 2.83337 10C2.83337 8.01088 3.62355 6.10322 5.03007 4.6967C6.4366 3.29018 8.34425 2.5 10.3334 2.5C12.3225 2.5 14.2302 3.29018 15.6367 4.6967C17.0432 6.10322 17.8334 8.01088 17.8334 10Z" fill="white"/>
<path d="M17.8334 10C17.8334 11.9891 17.0432 13.8968 15.6367 15.3033C14.2302 16.7098 12.3225 17.5 10.3334 17.5M17.8334 10C17.8334 8.01088 17.0432 6.10322 15.6367 4.6967C14.2302 3.29018 12.3225 2.5 10.3334 2.5M17.8334 10H2.83337M10.3334 17.5C8.34425 17.5 6.4366 16.7098 5.03007 15.3033C3.62355 13.8968 2.83337 11.9891 2.83337 10M10.3334 17.5C11.7142 17.5 12.8334 14.1417 12.8334 10C12.8334 5.85833 11.7142 2.5 10.3334 2.5M10.3334 17.5C8.95254 17.5 7.83337 14.1417 7.83337 10C7.83337 5.85833 8.95254 2.5 10.3334 2.5M10.3334 2.5C8.34425 2.5 6.4366 3.29018 5.03007 4.6967C3.62355 6.10322 2.83337 8.01088 2.83337 10" stroke="#9CA3AF" stroke-width="2" stroke-linecap="round" stroke-linejoin="round"/>
</g>
</g>
</svg>
