<svg width="21" height="20" viewBox="0 0 21 20" fill="none" xmlns="http://www.w3.org/2000/svg">
<g id="Google - Dark" clip-path="url(#clip0_303_8455)">
<path id="Union" fill-rule="evenodd" clip-rule="evenodd" d="M14.7027 5.45655C13.6702 4.4718 12.2923 3.93533 10.8666 3.95738C8.25772 3.95738 6.04204 5.71742 5.25203 8.08742C4.83314 9.32938 4.83314 10.6743 5.25202 11.9162H5.25569C6.04937 14.2826 8.26139 16.0426 10.8702 16.0426C12.2169 16.0426 13.3731 15.6982 14.2691 15.0898V15.0873C15.3237 14.3892 16.0439 13.2905 16.268 12.0485H10.8666V8.19772H20.2989C20.4165 8.86647 20.4716 9.54992 20.4716 10.2297C20.4716 13.2712 19.3846 15.8427 17.4933 17.5844L17.4953 17.5859C15.8381 19.1145 13.5636 20 10.8666 20C7.08556 20 3.62791 17.8688 1.93032 14.492C0.511993 11.6664 0.511997 8.33733 1.93033 5.51169C3.62792 2.1312 7.08556 2.50159e-06 10.8666 2.50159e-06C13.3505 -0.0293931 15.7499 0.903916 17.5577 2.60151L14.7027 5.45655Z" fill="#D9D9D9"/>
</g>
<defs>
<clipPath id="clip0_303_8455">
<rect width="20" height="20" fill="white" transform="translate(0.666626)"/>
</clipPath>
</defs>
</svg>
