<svg width="21" height="20" viewBox="0 0 21 20" fill="none" xmlns="http://www.w3.org/2000/svg">
<g id="information-circle">
<path id="Vector" fill-rule="evenodd" clip-rule="evenodd" d="M18.5 10C18.5 12.1217 17.6571 14.1566 16.1569 15.6569C14.6566 17.1571 12.6217 18 10.5 18C8.37827 18 6.34344 17.1571 4.84315 15.6569C3.34285 14.1566 2.5 12.1217 2.5 10C2.5 7.87827 3.34285 5.84344 4.84315 4.34315C6.34344 2.84285 8.37827 2 10.5 2C12.6217 2 14.6566 2.84285 16.1569 4.34315C17.6571 5.84344 18.5 7.87827 18.5 10ZM11.5 6C11.5 6.26522 11.3946 6.51957 11.2071 6.70711C11.0196 6.89464 10.7652 7 10.5 7C10.2348 7 9.98043 6.89464 9.79289 6.70711C9.60536 6.51957 9.5 6.26522 9.5 6C9.5 5.73478 9.60536 5.48043 9.79289 5.29289C9.98043 5.10536 10.2348 5 10.5 5C10.7652 5 11.0196 5.10536 11.2071 5.29289C11.3946 5.48043 11.5 5.73478 11.5 6ZM9.5 9C9.23478 9 8.98043 9.10536 8.79289 9.29289C8.60536 9.48043 8.5 9.73478 8.5 10C8.5 10.2652 8.60536 10.5196 8.79289 10.7071C8.98043 10.8946 9.23478 11 9.5 11V14C9.5 14.2652 9.60536 14.5196 9.79289 14.7071C9.98043 14.8946 10.2348 15 10.5 15H11.5C11.7652 15 12.0196 14.8946 12.2071 14.7071C12.3946 14.5196 12.5 14.2652 12.5 14C12.5 13.7348 12.3946 13.4804 12.2071 13.2929C12.0196 13.1054 11.7652 13 11.5 13V10C11.5 9.73478 11.3946 9.48043 11.2071 9.29289C11.0196 9.10536 10.7652 9 10.5 9H9.5Z" fill="#9CA3AF"/>
</g>
</svg>
