<svg width="16" height="16" viewBox="0 0 16 16" fill="none" xmlns="http://www.w3.org/2000/svg">
<g id="clipboard-list">
<path id="Vector" d="M6.98789 2.18787C7.04415 2.13161 7.12046 2.1 7.20002 2.1H8.80002C8.87959 2.1 8.9559 2.13161 9.01216 2.18787C9.06842 2.24413 9.10002 2.32043 9.10002 2.4C9.10002 2.47956 9.06842 2.55587 9.01216 2.61213C8.9559 2.66839 8.87959 2.7 8.80002 2.7H7.20002C7.12046 2.7 7.04415 2.66839 6.98789 2.61213C6.93163 2.55587 6.90002 2.47956 6.90002 2.4C6.90002 2.32043 6.93163 2.24413 6.98789 2.18787Z" fill="white" stroke="#7B7B7B"/>
<path id="Vector_2" fill-rule="evenodd" clip-rule="evenodd" d="M3.19995 4C3.19995 3.57566 3.36852 3.16869 3.66858 2.86863C3.96864 2.56857 4.3756 2.4 4.79995 2.4C4.79995 3.03652 5.05281 3.64697 5.5029 4.09706C5.95298 4.54715 6.56343 4.8 7.19995 4.8H8.79995C9.43647 4.8 10.0469 4.54715 10.497 4.09706C10.9471 3.64697 11.2 3.03652 11.2 2.4C11.6243 2.4 12.0313 2.56857 12.3313 2.86863C12.6314 3.16869 12.8 3.57566 12.8 4V12.8C12.8 13.2243 12.6314 13.6313 12.3313 13.9314C12.0313 14.2314 11.6243 14.4 11.2 14.4H4.79995C4.3756 14.4 3.96864 14.2314 3.66858 13.9314C3.36852 13.6313 3.19995 13.2243 3.19995 12.8V4ZM5.59995 7.2C5.38778 7.2 5.1843 7.28429 5.03427 7.43432C4.88424 7.58435 4.79995 7.78783 4.79995 8C4.79995 8.21217 4.88424 8.41566 5.03427 8.56569C5.1843 8.71572 5.38778 8.8 5.59995 8.8H5.60795C5.82012 8.8 6.02361 8.71572 6.17364 8.56569C6.32367 8.41566 6.40795 8.21217 6.40795 8C6.40795 7.78783 6.32367 7.58435 6.17364 7.43432C6.02361 7.28429 5.82012 7.2 5.60795 7.2H5.59995ZM7.99995 7.2C7.78778 7.2 7.5843 7.28429 7.43427 7.43432C7.28424 7.58435 7.19995 7.78783 7.19995 8C7.19995 8.21217 7.28424 8.41566 7.43427 8.56569C7.5843 8.71572 7.78778 8.8 7.99995 8.8H10.4C10.6121 8.8 10.8156 8.71572 10.9656 8.56569C11.1157 8.41566 11.2 8.21217 11.2 8C11.2 7.78783 11.1157 7.58435 10.9656 7.43432C10.8156 7.28429 10.6121 7.2 10.4 7.2H7.99995ZM5.59995 10.4C5.38778 10.4 5.1843 10.4843 5.03427 10.6343C4.88424 10.7843 4.79995 10.9878 4.79995 11.2C4.79995 11.4122 4.88424 11.6157 5.03427 11.7657C5.1843 11.9157 5.38778 12 5.59995 12H5.60795C5.82012 12 6.02361 11.9157 6.17364 11.7657C6.32367 11.6157 6.40795 11.4122 6.40795 11.2C6.40795 10.9878 6.32367 10.7843 6.17364 10.6343C6.02361 10.4843 5.82012 10.4 5.60795 10.4H5.59995ZM7.99995 10.4C7.78778 10.4 7.5843 10.4843 7.43427 10.6343C7.28424 10.7843 7.19995 10.9878 7.19995 11.2C7.19995 11.4122 7.28424 11.6157 7.43427 11.7657C7.5843 11.9157 7.78778 12 7.99995 12H10.4C10.6121 12 10.8156 11.9157 10.9656 11.7657C11.1157 11.6157 11.2 11.4122 11.2 11.2C11.2 10.9878 11.1157 10.7843 10.9656 10.6343C10.8156 10.4843 10.6121 10.4 10.4 10.4H7.99995Z" fill="#7B7B7B"/>
</g>
</svg>
