<svg width="21" height="21" viewBox="0 0 21 21" fill="none" xmlns="http://www.w3.org/2000/svg">
<g id="location-marker">
<path id="Vector" fill-rule="evenodd" clip-rule="evenodd" d="M5.38339 4.54999C6.69621 3.23717 8.47678 2.49963 10.3334 2.49963C12.19 2.49963 13.9706 3.23717 15.2834 4.54999C16.5962 5.86281 17.3337 7.64338 17.3337 9.49999C17.3337 11.3566 16.5962 13.1372 15.2834 14.45L10.3334 19.4L5.38339 14.45C4.73331 13.8 4.21762 13.0283 3.8658 12.1789C3.51397 11.3296 3.33289 10.4193 3.33289 9.49999C3.33289 8.58068 3.51397 7.67037 3.8658 6.82104C4.21762 5.97172 4.73331 5.20001 5.38339 4.54999ZM10.3334 11.5C10.8638 11.5 11.3725 11.2893 11.7476 10.9142C12.1227 10.5391 12.3334 10.0304 12.3334 9.49999C12.3334 8.96956 12.1227 8.46085 11.7476 8.08578C11.3725 7.7107 10.8638 7.49999 10.3334 7.49999C9.80296 7.49999 9.29425 7.7107 8.91918 8.08578C8.5441 8.46085 8.33339 8.96956 8.33339 9.49999C8.33339 10.0304 8.5441 10.5391 8.91918 10.9142C9.29425 11.2893 9.80296 11.5 10.3334 11.5Z" fill="#9CA3AF"/>
</g>
</svg>
