<svg width="21" height="21" viewBox="0 0 21 21" fill="none" xmlns="http://www.w3.org/2000/svg">
<g id="mail">
<path id="Vector" d="M2.33636 6.384L10.3334 10.382L18.3304 6.384C18.3008 5.87444 18.0775 5.39549 17.7062 5.04523C17.3349 4.69497 16.8438 4.49991 16.3334 4.5H4.33336C3.82295 4.49991 3.33181 4.69497 2.96054 5.04523C2.58927 5.39549 2.36597 5.87444 2.33636 6.384Z" fill="#9CA3AF"/>
<path id="Vector_2" d="M18.3334 8.618L10.3334 12.618L2.33337 8.618V14.5C2.33337 15.0304 2.54409 15.5391 2.91916 15.9142C3.29423 16.2893 3.80294 16.5 4.33337 16.5H16.3334C16.8638 16.5 17.3725 16.2893 17.7476 15.9142C18.1227 15.5391 18.3334 15.0304 18.3334 14.5V8.618Z" fill="#9CA3AF"/>
</g>
</svg>
