<svg width="21" height="21" viewBox="0 0 21 21" fill="none" xmlns="http://www.w3.org/2000/svg">
    <g clip-path="url(#2b91e2papa)">
        <path d="M19.996 11.916a.703.703 0 0 0-.588.127 7.498 7.498 0 0 1-2.275 1.33 7.123 7.123 0 0 1-2.581.46 7.516 7.516 0 0 1-5.316-2.199 7.516 7.516 0 0 1-2.199-5.316c0-.869.154-1.712.41-2.48.28-.817.69-1.558 1.226-2.197a.652.652 0 0 0-.102-.92.703.703 0 0 0-.588-.128c-2.172.588-4.064 1.891-5.418 3.63a10.122 10.122 0 0 0-2.096 6.159c0 2.786 1.124 5.316 2.965 7.157a10.084 10.084 0 0 0 7.156 2.964c2.352 0 4.524-.817 6.262-2.172a10.078 10.078 0 0 0 3.578-5.598c.128-.383-.076-.74-.434-.817zm-3.91 5.341a8.77 8.77 0 0 1-11.655-.69 8.77 8.77 0 0 1-2.582-6.21c0-2.02.664-3.86 1.815-5.342A8.787 8.787 0 0 1 6.603 2.56c-.128.281-.256.562-.358.869-.332.92-.486 1.891-.486 2.914 0 2.428.997 4.651 2.582 6.236a8.83 8.83 0 0 0 6.236 2.582 8.555 8.555 0 0 0 3.042-.537c.332-.128.665-.256.971-.41a9.3 9.3 0 0 1-2.505 3.042z" fill="#111"/>
    </g>
    <defs>
        <clipPath id="2b91e2papa">
            <path fill="#fff" transform="translate(.469 .538)" d="M0 0h20v20H0z"/>
        </clipPath>
    </defs>
</svg>
