<svg width="16" height="17" viewBox="0 0 16 17" fill="none" xmlns="http://www.w3.org/2000/svg">
<g id="office-building">
<path id="Vector" fill-rule="evenodd" clip-rule="evenodd" d="M3.20002 3.7C3.20002 3.27565 3.3686 2.86869 3.66865 2.56863C3.96871 2.26857 4.37568 2.1 4.80002 2.1H11.2C11.6244 2.1 12.0313 2.26857 12.3314 2.56863C12.6315 2.86869 12.8 3.27565 12.8 3.7V13.3C13.0122 13.3 13.2157 13.3843 13.3657 13.5343C13.5157 13.6843 13.6 13.8878 13.6 14.1C13.6 14.3122 13.5157 14.5157 13.3657 14.6657C13.2157 14.8157 13.0122 14.9 12.8 14.9H10.4C10.1879 14.9 9.98437 14.8157 9.83434 14.6657C9.68431 14.5157 9.60003 14.3122 9.60003 14.1V12.5C9.60003 12.2878 9.51574 12.0843 9.36571 11.9343C9.21568 11.7843 9.0122 11.7 8.80002 11.7H7.20002C6.98785 11.7 6.78437 11.7843 6.63434 11.9343C6.48431 12.0843 6.40002 12.2878 6.40002 12.5V14.1C6.40002 14.3122 6.31574 14.5157 6.16571 14.6657C6.01568 14.8157 5.8122 14.9 5.60002 14.9H3.20002C2.98785 14.9 2.78437 14.8157 2.63434 14.6657C2.48431 14.5157 2.40002 14.3122 2.40002 14.1C2.40002 13.8878 2.48431 13.6843 2.63434 13.5343C2.78437 13.3843 2.98785 13.3 3.20002 13.3V3.7ZM5.60002 4.5H7.20002V6.1H5.60002V4.5ZM7.20002 7.7H5.60002V9.3H7.20002V7.7ZM8.80002 4.5H10.4V6.1H8.80002V4.5ZM10.4 7.7H8.80002V9.3H10.4V7.7Z" fill="#6B7280"/>
</g>
</svg>
