<svg width="21" height="21" viewBox="0 0 21 21" fill="none" xmlns="http://www.w3.org/2000/svg">
<g id="phone">
<path id="Vector" d="M2.33337 3.5C2.33337 3.23478 2.43873 2.98043 2.62627 2.79289C2.8138 2.60536 3.06816 2.5 3.33337 2.5H5.48637C5.72308 2.50011 5.95207 2.58418 6.13262 2.73726C6.31316 2.89034 6.43355 3.1025 6.47237 3.336L7.21237 7.771C7.24773 7.98222 7.21435 8.19921 7.11714 8.39003C7.01993 8.58085 6.86402 8.73543 6.67237 8.831L5.12437 9.604C5.67948 10.9797 6.50621 12.2293 7.55515 13.2782C8.60409 14.3272 9.85372 15.1539 11.2294 15.709L12.0034 14.161C12.0989 13.9695 12.2533 13.8138 12.4439 13.7166C12.6345 13.6194 12.8513 13.5859 13.0624 13.621L17.4974 14.361C17.7309 14.3998 17.943 14.5202 18.0961 14.7008C18.2492 14.8813 18.3333 15.1103 18.3334 15.347V17.5C18.3334 17.7652 18.228 18.0196 18.0405 18.2071C17.8529 18.3946 17.5986 18.5 17.3334 18.5H15.3334C8.15337 18.5 2.33337 12.68 2.33337 5.5V3.5Z" fill="#9CA3AF"/>
</g>
</svg>
