<svg width="23" height="22" viewBox="0 0 23 22" fill="none" xmlns="http://www.w3.org/2000/svg">
<g id="skype">
<path id="Vector" d="M20.3816 12.1579C20.4322 11.7781 20.4666 11.3931 20.4666 11C20.4666 6.14021 16.5264 2.20001 11.6666 2.20001C11.2736 2.20001 10.8886 2.23447 10.5087 2.28507C9.67123 1.76954 8.68857 1.46667 7.6333 1.46667C4.59583 1.46667 2.1333 3.92921 2.1333 6.96667C2.1333 8.02194 2.43617 9.00461 2.9517 9.84207C2.9011 10.2219 2.86663 10.6069 2.86663 11C2.86663 15.8598 6.80683 19.8 11.6666 19.8C12.0597 19.8 12.4447 19.7655 12.8246 19.7149C13.662 20.2305 14.6447 20.5333 15.7 20.5333C18.7374 20.5333 21.2 18.0708 21.2 15.0333C21.2 13.9781 20.8971 12.9954 20.3816 12.1579ZM11.7759 16.1333C8.91883 16.1333 7.27837 14.6359 7.27837 13.1663C7.27837 12.4168 8.06303 12.177 8.3769 12.177C9.10217 12.177 9.34343 12.7688 9.47543 13.0401C10.2124 14.5552 10.9208 14.3557 11.619 14.4217C12.2357 14.4797 13.6833 14.2076 13.6833 13.1501C13.6833 13.0489 13.8424 12.3611 12.5928 12.0201C11.7942 11.8015 10.3862 11.5339 9.22757 11.088C8.13783 10.6685 7.49837 9.80467 7.49837 8.69147C7.49837 8.13487 7.78363 5.86667 11.6424 5.86667C14.2179 5.86667 15.5907 7.18594 15.5907 8.34681C15.5907 8.61374 15.4888 8.84914 15.2842 9.06107C15.0796 9.27301 14.5032 9.58321 13.8718 9.17914C13.7126 9.07721 13.5814 8.86527 13.4244 8.59027C13.2352 8.24487 12.9258 7.57754 11.5009 7.57754C10.1186 7.57754 9.73503 8.23681 9.73503 8.51181C9.73503 9.43581 11.4987 9.63014 11.9724 9.75261C13.7016 10.1985 16.0542 10.6084 16.0542 12.9397C16.0542 15.6163 13.269 16.1333 11.7759 16.1333Z" fill="#D9D9D9"/>
</g>
</svg>
