<svg width="23" height="23" viewBox="0 0 23 23" fill="none" xmlns="http://www.w3.org/2000/svg">
    <g clip-path="url(#y0gsi3nf3a)" fill="#fff">
        <path d="M15.368 7.888a5.548 5.548 0 0 0-3.9-1.63c-1.513 0-2.91.612-3.899 1.63a5.548 5.548 0 0 0-1.63 3.9c0 1.513.64 2.91 1.63 3.9.99.989 2.386 1.629 3.9 1.629 1.513 0 2.91-.611 3.899-1.63a5.548 5.548 0 0 0 1.63-3.9c0-1.512-.611-2.91-1.63-3.899zM14.32 14.64a4.025 4.025 0 0 1-2.851 1.164 4.025 4.025 0 0 1-2.852-1.164 4.025 4.025 0 0 1-1.164-2.852c0-1.106.436-2.124 1.164-2.852a4.025 4.025 0 0 1 2.852-1.164c1.105 0 2.124.437 2.851 1.164a4.025 4.025 0 0 1 1.164 2.852 4.025 4.025 0 0 1-1.164 2.852zM21.712 11.031h-2.24a.77.77 0 0 0-.757.757c0 .407.35.756.756.756h2.241a.77.77 0 0 0 .757-.756.77.77 0 0 0-.757-.757zM11.469 19.034a.77.77 0 0 0-.757.757v2.24c0 .408.35.757.757.757a.77.77 0 0 0 .756-.756V19.79a.77.77 0 0 0-.756-.757zM19.238 18.51l-1.6-1.6c-.262-.291-.757-.291-1.048 0a.738.738 0 0 0 0 1.047l1.6 1.6a.738.738 0 0 0 1.048 0 .738.738 0 0 0 0-1.047zM11.469.788a.77.77 0 0 0-.757.757v2.24c0 .408.35.757.757.757a.77.77 0 0 0 .756-.757v-2.24a.77.77 0 0 0-.756-.757zM19.268 4.018a.738.738 0 0 0-1.048 0l-1.6 1.6a.738.738 0 0 0 0 1.048c.261.291.756.291 1.047 0l1.6-1.6a.738.738 0 0 0 0-1.048zM3.466 11.031h-2.24a.77.77 0 0 0-.757.757c0 .407.32.756.756.756h2.241a.77.77 0 0 0 .757-.756.77.77 0 0 0-.757-.757zM6.318 16.91c-.262-.291-.757-.291-1.048 0l-1.6 1.6a.738.738 0 0 0 0 1.048.738.738 0 0 0 1.047 0l1.6-1.6a.738.738 0 0 0 0-1.048zM6.318 5.619l-1.601-1.6a.738.738 0 0 0-1.048 0 .738.738 0 0 0 0 1.047l1.6 1.6a.738.738 0 0 0 1.049 0 .738.738 0 0 0 0-1.047z"/>
    </g>
    <defs>
        <clipPath id="y0gsi3nf3a">
            <path fill="#fff" transform="translate(.469 .788)" d="M0 0h22v22H0z"/>
        </clipPath>
    </defs>
</svg>
