<svg width="21" height="16" viewBox="0 0 21 16" fill="none" xmlns="http://www.w3.org/2000/svg">
<g id="Lozenge">
<path id="Vector" d="M20.4674 4.00003C20.4674 4.00003 20.2721 2.62112 19.6705 2.01566C18.9088 1.21878 18.0573 1.21487 17.6666 1.168C14.8698 0.964874 10.6705 0.964874 10.6705 0.964874H10.6627C10.6627 0.964874 6.4635 0.964874 3.66663 1.168C3.276 1.21487 2.42444 1.21878 1.66272 2.01566C1.06116 2.62112 0.869751 4.00003 0.869751 4.00003C0.869751 4.00003 0.666626 5.62112 0.666626 7.23831V8.75394C0.666626 10.3711 0.865845 11.9922 0.865845 11.9922C0.865845 11.9922 1.06116 13.3711 1.65881 13.9766C2.42053 14.7735 3.42053 14.7461 3.86584 14.8321C5.46741 14.9844 10.6666 15.0313 10.6666 15.0313C10.6666 15.0313 14.8698 15.0235 17.6666 14.8243C18.0573 14.7774 18.9088 14.7735 19.6705 13.9766C20.2721 13.3711 20.4674 11.9922 20.4674 11.9922C20.4674 11.9922 20.6666 10.375 20.6666 8.75394V7.23831C20.6666 5.62112 20.4674 4.00003 20.4674 4.00003ZM8.60022 10.5938V4.97269L14.0026 7.793L8.60022 10.5938Z" fill="#D9D9D9"/>
</g>
</svg>
