<svg width="21" height="20" viewBox="0 0 21 20" fill="none" xmlns="http://www.w3.org/2000/svg">
<g id="Twitter - Dark" clip-path="url(#clip0_303_8457)">
<path id="Vector" d="M6.95842 18.125C14.5037 18.125 18.6319 11.8723 18.6319 6.45158C18.6319 6.2758 18.628 6.09611 18.6201 5.92033C19.4232 5.33958 20.1162 4.62024 20.6666 3.79611C19.9187 4.12886 19.1247 4.34618 18.3115 4.44064C19.1677 3.92745 19.8087 3.12126 20.1158 2.1715C19.3104 2.64883 18.4296 2.98554 17.5112 3.16721C16.8923 2.50966 16.0741 2.07429 15.183 1.92841C14.2919 1.78252 13.3776 1.93424 12.5814 2.36011C11.7852 2.78598 11.1515 3.46229 10.7782 4.28446C10.4049 5.10663 10.3128 6.02888 10.5162 6.90861C8.88537 6.82677 7.28991 6.40312 5.83328 5.66511C4.37665 4.92711 3.09137 3.89123 2.06077 2.62463C1.53696 3.52773 1.37667 4.5964 1.61248 5.61344C1.8483 6.63048 2.46251 7.51957 3.3303 8.10002C2.67882 8.07933 2.04161 7.90393 1.47131 7.5883V7.63908C1.47073 8.58682 1.79837 9.50552 2.39855 10.239C2.99873 10.9725 3.8344 11.4755 4.7635 11.6625C4.16001 11.8276 3.52661 11.8517 2.91233 11.7328C3.1745 12.5479 3.6846 13.2608 4.37143 13.772C5.05827 14.2832 5.88756 14.5672 6.74358 14.5844C5.29031 15.726 3.4951 16.3451 1.64709 16.3422C1.31937 16.3417 0.991958 16.3216 0.666626 16.2821C2.54401 17.4865 4.7279 18.1262 6.95842 18.125Z" fill="#D9D9D9"/>
</g>
<defs>
<clipPath id="clip0_303_8457">
<rect width="20" height="20" fill="white" transform="translate(0.666626)"/>
</clipPath>
</defs>
</svg>
